<?xml version="1.0" encoding="UTF-8" standalone="no"?>
<!DOCTYPE svg PUBLIC "-//W3C//DTD SVG 1.1//EN"
 "http://www.w3.org/Graphics/SVG/1.1/DTD/svg11.dtd">
<!-- Generated by graphviz version 2.28.0 (20110509.1545)
 -->
<!-- Title: _anonymous_0 Pages: 1 -->
<svg width="1482pt" height="564pt"
 viewBox="0.00 0.00 1482.00 564.00" xmlns="http://www.w3.org/2000/svg" xmlns:xlink="http://www.w3.org/1999/xlink">
<g id="graph1" class="graph" transform="scale(1 1) rotate(0) translate(4 560)">
<title>_anonymous_0</title>
<polygon fill="white" stroke="white" points="-4,5 -4,-560 1479,-560 1479,5 -4,5"/>
<!-- org_liveSense_misc_log_config_default -->
<g id="node1" class="node"><title>org_liveSense_misc_log_config_default</title>
<polygon fill="yellow" stroke="black" points="444.953,-519 444.953,-555 653.047,-555 653.047,-519 444.953,-519"/>
<text text-anchor="middle" x="549" y="-543" font-family="Arial" font-size="8.00">liveSense :: Misc :: SLF4J Default logger configuration</text>
<polyline fill="none" stroke="black" points="444.953,-537.801 653.047,-537.801 "/>
<text text-anchor="middle" x="549" y="-525.301" font-family="Arial" font-size="8.00">org.liveSense.misc.log.config.default(2&#45;SNAPSHOT)</text>
</g>
<!-- org_apache_commons_io -->
<g id="node2" class="node"><title>org_apache_commons_io</title>
<polygon fill="green" stroke="black" points="141.195,-445 141.195,-481 260.805,-481 260.805,-445 141.195,-445"/>
<text text-anchor="middle" x="201" y="-469" font-family="Arial" font-size="8.00">Apache Commons IO Bundle</text>
<polyline fill="none" stroke="black" points="141.195,-463.801 260.805,-463.801 "/>
<text text-anchor="middle" x="201" y="-451.301" font-family="Arial" font-size="8.00">org.apache.commons.io(1.4)</text>
</g>
<!-- org_liveSense_misc_log_config_default&#45;&gt;org_apache_commons_io -->
<g id="edge2" class="edge"><title>org_liveSense_misc_log_config_default&#45;&gt;org_apache_commons_io</title>
<path fill="none" stroke="yellow" d="M452.808,-518.952C401.518,-509.489 337.145,-497.02 271.305,-482.231"/>
<polygon fill="yellow" stroke="yellow" points="271.681,-478.727 261.155,-479.935 270.137,-485.555 271.681,-478.727"/>
</g>
<!-- org_apache_commons_lang -->
<g id="node3" class="node"><title>org_apache_commons_lang</title>
<polygon fill="green" stroke="black" points="278.637,-445 278.637,-481 405.363,-481 405.363,-445 278.637,-445"/>
<text text-anchor="middle" x="342" y="-469" font-family="Arial" font-size="8.00">Commons Lang</text>
<polyline fill="none" stroke="black" points="278.637,-463.801 405.363,-463.801 "/>
<text text-anchor="middle" x="342" y="-451.301" font-family="Arial" font-size="8.00">org.apache.commons.lang(2.5)</text>
</g>
<!-- org_liveSense_misc_log_config_default&#45;&gt;org_apache_commons_lang -->
<g id="edge4" class="edge"><title>org_liveSense_misc_log_config_default&#45;&gt;org_apache_commons_lang</title>
<path fill="none" stroke="yellow" d="M499.944,-518.937C470.148,-508.573 431.937,-495.283 400.563,-484.37"/>
<polygon fill="yellow" stroke="yellow" points="401.657,-481.045 391.062,-481.065 399.357,-487.656 401.657,-481.045"/>
</g>
<!-- ch_qos_logback_classic -->
<g id="node4" class="node"><title>ch_qos_logback_classic</title>
<polygon fill="green" stroke="black" points="423.643,-445 423.643,-481 542.357,-481 542.357,-445 423.643,-445"/>
<text text-anchor="middle" x="483" y="-469" font-family="Arial" font-size="8.00">Logback Classic Module</text>
<polyline fill="none" stroke="black" points="423.643,-463.801 542.357,-463.801 "/>
<text text-anchor="middle" x="483" y="-451.301" font-family="Arial" font-size="8.00">ch.qos.logback.classic(1.0.3)</text>
</g>
<!-- org_liveSense_misc_log_config_default&#45;&gt;ch_qos_logback_classic -->
<g id="edge6" class="edge"><title>org_liveSense_misc_log_config_default&#45;&gt;ch_qos_logback_classic</title>
<path fill="none" stroke="yellow" d="M533.359,-518.937C525.178,-510.012 515.006,-498.916 505.951,-489.037"/>
<polygon fill="yellow" stroke="yellow" points="508.325,-486.447 498.987,-481.441 503.165,-491.177 508.325,-486.447"/>
</g>
<!-- ch_qos_logback_core -->
<g id="node5" class="node"><title>ch_qos_logback_core</title>
<polygon fill="green" stroke="black" points="559.863,-445 559.863,-481 670.137,-481 670.137,-445 559.863,-445"/>
<text text-anchor="middle" x="615" y="-469" font-family="Arial" font-size="8.00">Logback Core Module</text>
<polyline fill="none" stroke="black" points="559.863,-463.801 670.137,-463.801 "/>
<text text-anchor="middle" x="615" y="-451.301" font-family="Arial" font-size="8.00">ch.qos.logback.core(1.0.3)</text>
</g>
<!-- org_liveSense_misc_log_config_default&#45;&gt;ch_qos_logback_core -->
<g id="edge8" class="edge"><title>org_liveSense_misc_log_config_default&#45;&gt;ch_qos_logback_core</title>
<path fill="none" stroke="yellow" d="M564.641,-518.937C572.822,-510.012 582.994,-498.916 592.049,-489.037"/>
<polygon fill="yellow" stroke="yellow" points="594.835,-491.177 599.013,-481.441 589.675,-486.447 594.835,-491.177"/>
</g>
<!-- org_apache_servicemix_bundles_commons_vfs -->
<g id="node6" class="node"><title>org_apache_servicemix_bundles_commons_vfs</title>
<polygon fill="green" stroke="black" points="1158.07,-445 1158.07,-481 1363.93,-481 1363.93,-445 1158.07,-445"/>
<text text-anchor="middle" x="1261" y="-469" font-family="Arial" font-size="8.00">Apache ServiceMix :: Bundles :: commons&#45;vfs</text>
<polyline fill="none" stroke="black" points="1158.07,-463.801 1363.93,-463.801 "/>
<text text-anchor="middle" x="1261" y="-451.301" font-family="Arial" font-size="8.00">org.apache.servicemix.bundles.commons&#45;vfs(1.0.0.6)</text>
</g>
<!-- org_liveSense_misc_log_config_default&#45;&gt;org_apache_servicemix_bundles_commons_vfs -->
<g id="edge10" class="edge"><title>org_liveSense_misc_log_config_default&#45;&gt;org_apache_servicemix_bundles_commons_vfs</title>
<path fill="none" stroke="yellow" d="M653.293,-525.453C785.278,-512.107 1011.77,-489.204 1147.83,-475.444"/>
<polygon fill="yellow" stroke="yellow" points="1148.28,-478.917 1157.87,-474.429 1147.57,-471.952 1148.28,-478.917"/>
</g>
<!-- slf4j_api -->
<g id="node7" class="node"><title>slf4j_api</title>
<polygon fill="green" stroke="black" points="705.877,-445 705.877,-481 772.123,-481 772.123,-445 705.877,-445"/>
<text text-anchor="middle" x="739" y="-469" font-family="Arial" font-size="8.00">slf4j&#45;api</text>
<polyline fill="none" stroke="black" points="705.877,-463.801 772.123,-463.801 "/>
<text text-anchor="middle" x="739" y="-451.301" font-family="Arial" font-size="8.00">slf4j.api(1.6.1)</text>
</g>
<!-- org_liveSense_misc_log_config_default&#45;&gt;slf4j_api -->
<g id="edge12" class="edge"><title>org_liveSense_misc_log_config_default&#45;&gt;slf4j_api</title>
<path fill="none" stroke="yellow" d="M594.027,-518.937C624.922,-507.23 665.674,-491.787 696.101,-480.256"/>
<polygon fill="yellow" stroke="yellow" points="697.481,-483.476 705.592,-476.66 695,-476.931 697.481,-483.476"/>
</g>
<!-- ch_qos_logback_classic&#45;&gt;ch_qos_logback_core -->
<g id="edge14" class="edge"><title>ch_qos_logback_classic&#45;&gt;ch_qos_logback_core</title>
<path fill="none" stroke="green" d="M542.555,-463C544.892,-463 547.23,-463 549.568,-463"/>
<polygon fill="green" stroke="green" points="549.817,-466.5 559.817,-463 549.817,-459.5 549.817,-466.5"/>
</g>
<!-- ch_qos_logback_classic&#45;&gt;slf4j_api -->
<g id="edge18" class="edge"><title>ch_qos_logback_classic&#45;&gt;slf4j_api</title>
<path fill="none" stroke="green" d="M518.223,-481.104C530.207,-486.347 543.89,-491.365 557,-494 607.545,-504.159 622.682,-505.229 673,-494 681.525,-492.098 690.25,-488.969 698.446,-485.412"/>
<polygon fill="green" stroke="green" points="700.179,-488.467 707.783,-481.09 697.238,-482.115 700.179,-488.467"/>
</g>
<!-- org_apache_felix_http_jetty -->
<g id="node8" class="node"><title>org_apache_felix_http_jetty</title>
<polygon fill="#3182bd" stroke="black" points="478.969,-149 478.969,-185 607.031,-185 607.031,-149 478.969,-149"/>
<text text-anchor="middle" x="543" y="-173" font-family="Arial" font-size="8.00">Apache Felix Http Jetty</text>
<polyline fill="none" stroke="black" points="478.969,-167.801 607.031,-167.801 "/>
<text text-anchor="middle" x="543" y="-155.301" font-family="Arial" font-size="8.00">org.apache.felix.http.jetty(2.2.0)</text>
</g>
<!-- ch_qos_logback_classic&#45;&gt;org_apache_felix_http_jetty -->
<g id="edge16" class="edge"><title>ch_qos_logback_classic&#45;&gt;org_apache_felix_http_jetty</title>
<path fill="none" stroke="green" d="M477.89,-444.963C466.64,-404.156 443.441,-298.529 479,-222 484.607,-209.932 494.386,-199.591 504.637,-191.284"/>
<polygon fill="green" stroke="green" points="507.01,-193.878 512.889,-185.064 502.797,-188.289 507.01,-193.878"/>
</g>
<!-- groovy_all -->
<g id="node9" class="node"><title>groovy_all</title>
<polygon fill="#3182bd" stroke="black" points="353.1,-371 353.1,-407 426.9,-407 426.9,-371 353.1,-371"/>
<text text-anchor="middle" x="390" y="-395" font-family="Arial" font-size="8.00">Groovy Runtime</text>
<polyline fill="none" stroke="black" points="353.1,-389.801 426.9,-389.801 "/>
<text text-anchor="middle" x="390" y="-377.301" font-family="Arial" font-size="8.00">groovy&#45;all(1.8.2)</text>
</g>
<!-- ch_qos_logback_classic&#45;&gt;groovy_all -->
<g id="edge20" class="edge"><title>ch_qos_logback_classic&#45;&gt;groovy_all</title>
<path fill="none" stroke="green" d="M460.96,-444.937C448.772,-435.501 433.45,-423.639 420.166,-413.354"/>
<polygon fill="green" stroke="green" points="422.254,-410.544 412.204,-407.19 417.968,-416.079 422.254,-410.544"/>
</g>
<!-- ch_qos_logback_core&#45;&gt;org_apache_felix_http_jetty -->
<g id="edge28" class="edge"><title>ch_qos_logback_core&#45;&gt;org_apache_felix_http_jetty</title>
<path fill="none" stroke="#3182bd" d="M559.595,-446.017C541.175,-437.774 522.658,-425.622 512,-408 499.922,-388.03 477.168,-383.891 517,-222 519.312,-212.604 523.375,-202.908 527.613,-194.37"/>
<polygon fill="#3182bd" stroke="#3182bd" points="530.826,-195.78 532.386,-185.3 524.632,-192.519 530.826,-195.78"/>
</g>
<!-- org_glassfish_javax_mail -->
<g id="node12" class="node"><title>org_glassfish_javax_mail</title>
<polygon fill="#9ecae1" stroke="black" points="520.752,-371 520.752,-407 673.248,-407 673.248,-371 520.752,-371"/>
<text text-anchor="middle" x="597" y="-395" font-family="Arial" font-size="8.00">javax.mail API v.1.4</text>
<polyline fill="none" stroke="black" points="520.752,-389.801 673.248,-389.801 "/>
<text text-anchor="middle" x="597" y="-377.301" font-family="Arial" font-size="8.00">org.glassfish.javax.mail(3.0.0.Preview)</text>
</g>
<!-- ch_qos_logback_core&#45;&gt;org_glassfish_javax_mail -->
<g id="edge26" class="edge"><title>ch_qos_logback_core&#45;&gt;org_glassfish_javax_mail</title>
<path fill="none" stroke="#3182bd" d="M610.734,-444.937C608.68,-436.719 606.165,-426.66 603.851,-417.406"/>
<polygon fill="#3182bd" stroke="#3182bd" points="607.181,-416.293 601.36,-407.441 600.39,-417.991 607.181,-416.293"/>
</g>
<!-- org_apache_commons_collections -->
<g id="node10" class="node"><title>org_apache_commons_collections</title>
<polygon fill="#3182bd" stroke="black" points="1319.19,-371 1319.19,-407 1474.81,-407 1474.81,-371 1319.19,-371"/>
<text text-anchor="middle" x="1397" y="-395" font-family="Arial" font-size="8.00">Commons Collections</text>
<polyline fill="none" stroke="black" points="1319.19,-389.801 1474.81,-389.801 "/>
<text text-anchor="middle" x="1397" y="-377.301" font-family="Arial" font-size="8.00">org.apache.commons.collections(3.2.1)</text>
</g>
<!-- org_apache_servicemix_bundles_commons_vfs&#45;&gt;org_apache_commons_collections -->
<g id="edge22" class="edge"><title>org_apache_servicemix_bundles_commons_vfs&#45;&gt;org_apache_commons_collections</title>
<path fill="none" stroke="green" d="M1293.23,-444.937C1311.89,-435.056 1335.58,-422.514 1355.62,-411.91"/>
<polygon fill="green" stroke="green" points="1357.33,-414.962 1364.53,-407.19 1354.05,-408.776 1357.33,-414.962"/>
</g>
<!-- jcl_over_slf4j -->
<g id="node11" class="node"><title>jcl_over_slf4j</title>
<polygon fill="#3182bd" stroke="black" points="1220.77,-371 1220.77,-407 1301.23,-407 1301.23,-371 1220.77,-371"/>
<text text-anchor="middle" x="1261" y="-395" font-family="Arial" font-size="8.00">jcl&#45;over&#45;slf4j</text>
<polyline fill="none" stroke="black" points="1220.77,-389.801 1301.23,-389.801 "/>
<text text-anchor="middle" x="1261" y="-377.301" font-family="Arial" font-size="8.00">jcl.over.slf4j(1.6.1)</text>
</g>
<!-- org_apache_servicemix_bundles_commons_vfs&#45;&gt;jcl_over_slf4j -->
<g id="edge24" class="edge"><title>org_apache_servicemix_bundles_commons_vfs&#45;&gt;jcl_over_slf4j</title>
<path fill="none" stroke="green" d="M1261,-444.937C1261,-436.807 1261,-426.876 1261,-417.705"/>
<polygon fill="green" stroke="green" points="1264.5,-417.441 1261,-407.441 1257.5,-417.441 1264.5,-417.441"/>
</g>
<!-- slf4j_api&#45;&gt;ch_qos_logback_classic -->
<g id="edge84" class="edge"><title>slf4j_api&#45;&gt;ch_qos_logback_classic</title>
<path fill="none" stroke="#bdbdbd" d="M716.156,-481.006C702.684,-490.461 684.825,-501.082 667,-506 622.442,-518.293 607.824,-517.283 563,-506 547.222,-502.028 531.165,-494.272 517.619,-486.428"/>
<polygon fill="#bdbdbd" stroke="#bdbdbd" points="519.045,-483.201 508.676,-481.028 515.427,-489.193 519.045,-483.201"/>
</g>
<!-- org_apache_felix_http_jetty&#45;&gt;slf4j_api -->
<g id="edge40" class="edge"><title>org_apache_felix_http_jetty&#45;&gt;slf4j_api</title>
<path fill="none" stroke="#9ecae1" d="M540.505,-185.006C538.498,-204.317 537.742,-236.223 550,-260 584.993,-327.878 631.911,-312.354 682,-370 699.687,-390.355 715.457,-416.802 725.901,-436.112"/>
<polygon fill="#9ecae1" stroke="#9ecae1" points="722.813,-437.761 730.585,-444.961 729,-434.486 722.813,-437.761"/>
</g>
<!-- org_apache_sling_commons_logservice -->
<g id="node15" class="node"><title>org_apache_sling_commons_logservice</title>
<polygon fill="#deebf7" stroke="black" points="753.955,-1 753.955,-37 938.045,-37 938.045,-1 753.955,-1"/>
<text text-anchor="middle" x="846" y="-25" font-family="Arial" font-size="8.00">Apache Sling OSGi LogService Implementation</text>
<polyline fill="none" stroke="black" points="753.955,-19.8008 938.045,-19.8008 "/>
<text text-anchor="middle" x="846" y="-7.30078" font-family="Arial" font-size="8.00">org.apache.sling.commons.logservice(1.0.0)</text>
</g>
<!-- org_apache_felix_http_jetty&#45;&gt;org_apache_sling_commons_logservice -->
<g id="edge38" class="edge"><title>org_apache_felix_http_jetty&#45;&gt;org_apache_sling_commons_logservice</title>
<path fill="none" stroke="#9ecae1" d="M548.293,-148.82C555.692,-127.792 571.2,-92.6845 597,-74 639.226,-43.4191 695.353,-29.551 743.629,-23.4886"/>
<polygon fill="#9ecae1" stroke="#9ecae1" points="744.272,-26.9375 753.803,-22.3102 743.467,-19.984 744.272,-26.9375"/>
</g>
<!-- org_apache_felix_configadmin -->
<g id="node16" class="node"><title>org_apache_felix_configadmin</title>
<polygon fill="#deebf7" stroke="black" points="606.295,-75 606.295,-111 771.705,-111 771.705,-75 606.295,-75"/>
<text text-anchor="middle" x="689" y="-99" font-family="Arial" font-size="8.00">Apache Felix Configuration Admin Service</text>
<polyline fill="none" stroke="black" points="606.295,-93.8008 771.705,-93.8008 "/>
<text text-anchor="middle" x="689" y="-81.3008" font-family="Arial" font-size="8.00">org.apache.felix.configadmin(1.2.8)</text>
</g>
<!-- org_apache_felix_http_jetty&#45;&gt;org_apache_felix_configadmin -->
<g id="edge42" class="edge"><title>org_apache_felix_http_jetty&#45;&gt;org_apache_felix_configadmin</title>
<path fill="none" stroke="#9ecae1" d="M577.6,-148.937C597.891,-138.931 623.714,-126.196 645.389,-115.507"/>
<polygon fill="#9ecae1" stroke="#9ecae1" points="646.975,-118.627 654.396,-111.065 643.879,-112.349 646.975,-118.627"/>
</g>
<!-- groovy_all&#45;&gt;org_apache_felix_http_jetty -->
<g id="edge32" class="edge"><title>groovy_all&#45;&gt;org_apache_felix_http_jetty</title>
<path fill="none" stroke="#3182bd" d="M393.495,-370.98C401.466,-333.483 421.786,-245.233 441,-222 452.315,-208.318 468.017,-197.638 483.714,-189.521"/>
<polygon fill="#3182bd" stroke="#3182bd" points="485.465,-192.561 492.922,-185.035 482.399,-186.268 485.465,-192.561"/>
</g>
<!-- org_apache_servicemix_bundles_xstream -->
<g id="node13" class="node"><title>org_apache_servicemix_bundles_xstream</title>
<polygon fill="#9ecae1" stroke="black" points="201.627,-297 201.627,-333 388.373,-333 388.373,-297 201.627,-297"/>
<text text-anchor="middle" x="295" y="-321" font-family="Arial" font-size="8.00">Apache ServiceMix :: Bundles :: xstream</text>
<polyline fill="none" stroke="black" points="201.627,-315.801 388.373,-315.801 "/>
<text text-anchor="middle" x="295" y="-303.301" font-family="Arial" font-size="8.00">org.apache.servicemix.bundles.xstream(1.4.1.1)</text>
</g>
<!-- groovy_all&#45;&gt;org_apache_servicemix_bundles_xstream -->
<g id="edge30" class="edge"><title>groovy_all&#45;&gt;org_apache_servicemix_bundles_xstream</title>
<path fill="none" stroke="#3182bd" d="M367.486,-370.937C355.036,-361.501 339.385,-349.639 325.814,-339.354"/>
<polygon fill="#3182bd" stroke="#3182bd" points="327.765,-336.441 317.681,-333.19 323.537,-342.02 327.765,-336.441"/>
</g>
<!-- org_apache_sling_scripting_jsp -->
<g id="node14" class="node"><title>org_apache_sling_scripting_jsp</title>
<polygon fill="#9ecae1" stroke="black" points="766.631,-297 766.631,-333 913.369,-333 913.369,-297 766.631,-297"/>
<text text-anchor="middle" x="840" y="-321" font-family="Arial" font-size="8.00">Apache Sling Scripting JSP Support</text>
<polyline fill="none" stroke="black" points="766.631,-315.801 913.369,-315.801 "/>
<text text-anchor="middle" x="840" y="-303.301" font-family="Arial" font-size="8.00">org.apache.sling.scripting.jsp(2.0.24)</text>
</g>
<!-- groovy_all&#45;&gt;org_apache_sling_scripting_jsp -->
<g id="edge34" class="edge"><title>groovy_all&#45;&gt;org_apache_sling_scripting_jsp</title>
<path fill="none" stroke="#3182bd" d="M427.208,-382.047C498.971,-370.565 658.087,-345.106 756.474,-329.364"/>
<polygon fill="#3182bd" stroke="#3182bd" points="757.068,-332.814 766.39,-327.778 755.962,-325.902 757.068,-332.814"/>
</g>
<!-- jcl_over_slf4j&#45;&gt;slf4j_api -->
<g id="edge36" class="edge"><title>jcl_over_slf4j&#45;&gt;slf4j_api</title>
<path fill="none" stroke="#3182bd" d="M1220.56,-404.478C1216.02,-405.804 1211.44,-407.015 1207,-408 1053.09,-442.145 865.626,-455.486 782.396,-459.993"/>
<polygon fill="#3182bd" stroke="#3182bd" points="782.102,-456.504 772.299,-460.524 782.469,-463.494 782.102,-456.504"/>
</g>
<!-- org_apache_servicemix_bundles_xpp3 -->
<g id="node17" class="node"><title>org_apache_servicemix_bundles_xpp3</title>
<polygon fill="#deebf7" stroke="black" points="200.729,-223 200.729,-259 389.271,-259 389.271,-223 200.729,-223"/>
<text text-anchor="middle" x="295" y="-247" font-family="Arial" font-size="8.00">Apache ServiceMix :: Bundles :: xpp3</text>
<polyline fill="none" stroke="black" points="200.729,-241.801 389.271,-241.801 "/>
<text text-anchor="middle" x="295" y="-229.301" font-family="Arial" font-size="8.00">org.apache.servicemix.bundles.xpp3(1.1.0.4c_5)</text>
</g>
<!-- org_apache_servicemix_bundles_xstream&#45;&gt;org_apache_servicemix_bundles_xpp3 -->
<g id="edge44" class="edge"><title>org_apache_servicemix_bundles_xstream&#45;&gt;org_apache_servicemix_bundles_xpp3</title>
<path fill="none" stroke="#9ecae1" d="M295,-296.937C295,-288.807 295,-278.876 295,-269.705"/>
<polygon fill="#9ecae1" stroke="#9ecae1" points="298.5,-269.441 295,-259.441 291.5,-269.441 298.5,-269.441"/>
</g>
<!-- org_apache_servicemix_bundles_cglib -->
<g id="node18" class="node"><title>org_apache_servicemix_bundles_cglib</title>
<polygon fill="#deebf7" stroke="black" points="-0.824219,-223 -0.824219,-259 182.824,-259 182.824,-223 -0.824219,-223"/>
<text text-anchor="middle" x="91" y="-247" font-family="Arial" font-size="8.00">Apache ServiceMix Bundles: cglib&#45;2.1_3</text>
<polyline fill="none" stroke="black" points="-0.824219,-241.801 182.824,-241.801 "/>
<text text-anchor="middle" x="91" y="-229.301" font-family="Arial" font-size="8.00">org.apache.servicemix.bundles.cglib(2.1.0.3_4)</text>
</g>
<!-- org_apache_servicemix_bundles_xstream&#45;&gt;org_apache_servicemix_bundles_cglib -->
<g id="edge46" class="edge"><title>org_apache_servicemix_bundles_xstream&#45;&gt;org_apache_servicemix_bundles_cglib</title>
<path fill="none" stroke="#9ecae1" d="M246.655,-296.937C217.418,-286.618 179.958,-273.397 149.114,-262.511"/>
<polygon fill="#9ecae1" stroke="#9ecae1" points="149.946,-259.093 139.351,-259.065 147.616,-265.694 149.946,-259.093"/>
</g>
<!-- org_apache_sling_scripting_jsp&#45;&gt;slf4j_api -->
<g id="edge58" class="edge"><title>org_apache_sling_scripting_jsp&#45;&gt;slf4j_api</title>
<path fill="none" stroke="#9ecae1" d="M827.978,-333.378C810.296,-358.939 777.162,-406.835 756.697,-436.418"/>
<polygon fill="#9ecae1" stroke="#9ecae1" points="753.594,-434.751 750.784,-444.966 759.351,-438.733 753.594,-434.751"/>
</g>
<!-- org_apache_sling_scripting_jsp&#45;&gt;org_apache_felix_http_jetty -->
<g id="edge54" class="edge"><title>org_apache_sling_scripting_jsp&#45;&gt;org_apache_felix_http_jetty</title>
<path fill="none" stroke="#9ecae1" d="M789.503,-296.974C766.08,-287.861 738.51,-275.336 716,-260 696.261,-246.552 697.94,-235.148 678,-222 657.163,-208.26 632.284,-197.079 609.592,-188.529"/>
<polygon fill="#9ecae1" stroke="#9ecae1" points="610.613,-185.175 600.02,-185.026 608.208,-191.749 610.613,-185.175"/>
</g>
<!-- org_apache_felix_scr -->
<g id="node19" class="node"><title>org_apache_felix_scr</title>
<polygon fill="#deebf7" stroke="black" points="890.309,-149 890.309,-185 1027.69,-185 1027.69,-149 890.309,-149"/>
<text text-anchor="middle" x="959" y="-173" font-family="Arial" font-size="8.00">Apache Felix Declarative Services</text>
<polyline fill="none" stroke="black" points="890.309,-167.801 1027.69,-167.801 "/>
<text text-anchor="middle" x="959" y="-155.301" font-family="Arial" font-size="8.00">org.apache.felix.scr(1.6.0)</text>
</g>
<!-- org_apache_sling_scripting_jsp&#45;&gt;org_apache_felix_scr -->
<g id="edge48" class="edge"><title>org_apache_sling_scripting_jsp&#45;&gt;org_apache_felix_scr</title>
<path fill="none" stroke="#9ecae1" d="M872.747,-296.885C888.054,-287.603 905.595,-274.961 918,-260 933.967,-240.742 944.893,-214.276 951.425,-194.673"/>
<polygon fill="#9ecae1" stroke="#9ecae1" points="954.767,-195.712 954.443,-185.122 948.092,-193.603 954.767,-195.712"/>
</g>
<!-- org_apache_sling_api -->
<g id="node20" class="node"><title>org_apache_sling_api</title>
<polygon fill="#deebf7" stroke="black" points="558.637,-223 558.637,-259 669.363,-259 669.363,-223 558.637,-223"/>
<text text-anchor="middle" x="614" y="-247" font-family="Arial" font-size="8.00">Apache Sling API</text>
<polyline fill="none" stroke="black" points="558.637,-241.801 669.363,-241.801 "/>
<text text-anchor="middle" x="614" y="-229.301" font-family="Arial" font-size="8.00">org.apache.sling.api(2.2.4)</text>
</g>
<!-- org_apache_sling_scripting_jsp&#45;&gt;org_apache_sling_api -->
<g id="edge50" class="edge"><title>org_apache_sling_scripting_jsp&#45;&gt;org_apache_sling_api</title>
<path fill="none" stroke="#9ecae1" d="M786.441,-296.937C753.77,-286.529 711.833,-273.168 677.496,-262.229"/>
<polygon fill="#9ecae1" stroke="#9ecae1" points="678.156,-258.766 667.566,-259.065 676.031,-265.436 678.156,-258.766"/>
</g>
<!-- org_apache_sling_commons_classloader -->
<g id="node21" class="node"><title>org_apache_sling_commons_classloader</title>
<polygon fill="#deebf7" stroke="black" points="987.293,-223 987.293,-259 1164.71,-259 1164.71,-223 987.293,-223"/>
<text text-anchor="middle" x="1076" y="-247" font-family="Arial" font-size="8.00">Apache Sling Dynamic Class Loader Support</text>
<polyline fill="none" stroke="black" points="987.293,-241.801 1164.71,-241.801 "/>
<text text-anchor="middle" x="1076" y="-229.301" font-family="Arial" font-size="8.00">org.apache.sling.commons.classloader(1.3.0)</text>
</g>
<!-- org_apache_sling_scripting_jsp&#45;&gt;org_apache_sling_commons_classloader -->
<g id="edge52" class="edge"><title>org_apache_sling_scripting_jsp&#45;&gt;org_apache_sling_commons_classloader</title>
<path fill="none" stroke="#9ecae1" d="M895.929,-296.937C930.191,-286.484 974.215,-273.053 1010.16,-262.088"/>
<polygon fill="#9ecae1" stroke="#9ecae1" points="1011.52,-265.331 1020.06,-259.065 1009.48,-258.636 1011.52,-265.331"/>
</g>
<!-- org_apache_sling_scripting_api -->
<g id="node22" class="node"><title>org_apache_sling_scripting_api</title>
<polygon fill="#deebf7" stroke="black" points="724.957,-223 724.957,-259 893.043,-259 893.043,-223 724.957,-223"/>
<text text-anchor="middle" x="809" y="-247" font-family="Arial" font-size="8.00">Apache Sling Scripting Implementation API</text>
<polyline fill="none" stroke="black" points="724.957,-241.801 893.043,-241.801 "/>
<text text-anchor="middle" x="809" y="-229.301" font-family="Arial" font-size="8.00">org.apache.sling.scripting.api(2.1.4)</text>
</g>
<!-- org_apache_sling_scripting_jsp&#45;&gt;org_apache_sling_scripting_api -->
<g id="edge56" class="edge"><title>org_apache_sling_scripting_jsp&#45;&gt;org_apache_sling_scripting_api</title>
<path fill="none" stroke="#9ecae1" d="M832.653,-296.937C829.039,-288.542 824.598,-278.227 820.543,-268.81"/>
<polygon fill="#9ecae1" stroke="#9ecae1" points="823.679,-267.241 816.509,-259.441 817.249,-270.01 823.679,-267.241"/>
</g>
<!-- org_apache_felix_eventadmin -->
<g id="node23" class="node"><title>org_apache_felix_eventadmin</title>
<polygon fill="#deebf7" stroke="black" points="728.184,-149 728.184,-185 871.816,-185 871.816,-149 728.184,-149"/>
<text text-anchor="middle" x="800" y="-173" font-family="Arial" font-size="8.00">Apache Felix EventAdmin</text>
<polyline fill="none" stroke="black" points="728.184,-167.801 871.816,-167.801 "/>
<text text-anchor="middle" x="800" y="-155.301" font-family="Arial" font-size="8.00">org.apache.felix.eventadmin(1.2.14)</text>
</g>
<!-- org_apache_sling_scripting_jsp&#45;&gt;org_apache_felix_eventadmin -->
<g id="edge60" class="edge"><title>org_apache_sling_scripting_jsp&#45;&gt;org_apache_felix_eventadmin</title>
<path fill="none" stroke="#9ecae1" d="M868.867,-296.972C881.537,-287.786 895.082,-275.2 902,-260 908.996,-244.628 910.711,-236.469 902,-222 893.612,-208.069 880.292,-197.544 866.009,-189.665"/>
<polygon fill="#9ecae1" stroke="#9ecae1" points="867.527,-186.51 857.027,-185.094 864.352,-192.749 867.527,-186.51"/>
</g>
<!-- org_apache_sling_commons_logservice&#45;&gt;slf4j_api -->
<g id="edge62" class="edge"><title>org_apache_sling_commons_logservice&#45;&gt;slf4j_api</title>
<path fill="none" stroke="#deebf7" d="M938.079,-20.7979C1040.88,-27.1306 1193,-55.2177 1193,-166 1193,-316 1193,-316 1193,-316 1193,-401.708 896.059,-444.278 782.471,-457.426"/>
<polygon fill="#deebf7" stroke="#deebf7" points="781.925,-453.966 772.384,-458.572 782.715,-460.921 781.925,-453.966"/>
</g>
<!-- org_apache_felix_configadmin&#45;&gt;org_apache_sling_commons_logservice -->
<g id="edge64" class="edge"><title>org_apache_felix_configadmin&#45;&gt;org_apache_sling_commons_logservice</title>
<path fill="none" stroke="#deebf7" d="M726.207,-74.937C748.124,-64.886 776.044,-52.0819 799.415,-41.3638"/>
<polygon fill="#deebf7" stroke="#deebf7" points="801.158,-44.4151 808.789,-37.0651 798.24,-38.0523 801.158,-44.4151"/>
</g>
<!-- org_apache_felix_scr&#45;&gt;org_apache_sling_commons_logservice -->
<g id="edge68" class="edge"><title>org_apache_felix_scr&#45;&gt;org_apache_sling_commons_logservice</title>
<path fill="none" stroke="#deebf7" d="M966.383,-148.871C973.633,-129.156 981.66,-96.5957 967,-74 957.685,-59.6424 943.565,-49.0692 928.219,-41.2933"/>
<polygon fill="#deebf7" stroke="#deebf7" points="929.611,-38.081 919.069,-37.0308 926.655,-44.4263 929.611,-38.081"/>
</g>
<!-- org_apache_felix_scr&#45;&gt;org_apache_felix_configadmin -->
<g id="edge70" class="edge"><title>org_apache_felix_scr&#45;&gt;org_apache_felix_configadmin</title>
<path fill="none" stroke="#deebf7" d="M895.014,-148.937C855.312,-138.35 804.156,-124.708 762.753,-113.667"/>
<polygon fill="#deebf7" stroke="#deebf7" points="763.558,-110.26 752.994,-111.065 761.755,-117.024 763.558,-110.26"/>
</g>
<!-- org_apache_felix_metatype -->
<g id="node24" class="node"><title>org_apache_felix_metatype</title>
<polygon fill="#bdbdbd" stroke="black" points="827.635,-75 827.635,-111 958.365,-111 958.365,-75 827.635,-75"/>
<text text-anchor="middle" x="893" y="-99" font-family="Arial" font-size="8.00">Apache Felix Metatype Service</text>
<polyline fill="none" stroke="black" points="827.635,-93.8008 958.365,-93.8008 "/>
<text text-anchor="middle" x="893" y="-81.3008" font-family="Arial" font-size="8.00">org.apache.felix.metatype(1.0.4)</text>
</g>
<!-- org_apache_felix_scr&#45;&gt;org_apache_felix_metatype -->
<g id="edge66" class="edge"><title>org_apache_felix_scr&#45;&gt;org_apache_felix_metatype</title>
<path fill="none" stroke="#deebf7" d="M943.359,-148.937C935.178,-140.012 925.006,-128.916 915.951,-119.037"/>
<polygon fill="#deebf7" stroke="#deebf7" points="918.325,-116.447 908.987,-111.441 913.165,-121.177 918.325,-116.447"/>
</g>
<!-- org_apache_sling_api&#45;&gt;slf4j_api -->
<g id="edge74" class="edge"><title>org_apache_sling_api&#45;&gt;slf4j_api</title>
<path fill="none" stroke="#deebf7" d="M631.309,-259.013C653.841,-282.119 692.937,-325.647 715,-370 725.25,-390.604 731.453,-416.052 734.978,-434.957"/>
<polygon fill="#deebf7" stroke="#deebf7" points="731.559,-435.722 736.712,-444.979 738.456,-434.529 731.559,-435.722"/>
</g>
<!-- org_apache_sling_api&#45;&gt;org_apache_felix_http_jetty -->
<g id="edge72" class="edge"><title>org_apache_sling_api&#45;&gt;org_apache_felix_http_jetty</title>
<path fill="none" stroke="#deebf7" d="M597.174,-222.937C588.286,-213.924 577.214,-202.696 567.401,-192.744"/>
<polygon fill="#deebf7" stroke="#deebf7" points="569.712,-190.104 560.198,-185.441 564.728,-195.019 569.712,-190.104"/>
</g>
<!-- org_apache_sling_commons_classloader&#45;&gt;slf4j_api -->
<g id="edge76" class="edge"><title>org_apache_sling_commons_classloader&#45;&gt;slf4j_api</title>
<path fill="none" stroke="#deebf7" d="M1049.62,-259.221C989.322,-298.585 841.409,-395.145 773.773,-439.3"/>
<polygon fill="#deebf7" stroke="#deebf7" points="771.624,-436.523 765.163,-444.92 775.45,-442.384 771.624,-436.523"/>
</g>
<!-- org_apache_felix_eventadmin&#45;&gt;org_apache_sling_commons_logservice -->
<g id="edge80" class="edge"><title>org_apache_felix_eventadmin&#45;&gt;org_apache_sling_commons_logservice</title>
<path fill="none" stroke="#deebf7" d="M802.204,-148.686C804.906,-129.921 810.24,-99.2722 819,-74 822.277,-64.5452 826.865,-54.6323 831.33,-45.918"/>
<polygon fill="#deebf7" stroke="#deebf7" points="834.461,-47.4843 836.059,-37.0107 828.279,-44.2016 834.461,-47.4843"/>
</g>
<!-- org_apache_felix_eventadmin&#45;&gt;org_apache_felix_configadmin -->
<g id="edge82" class="edge"><title>org_apache_felix_eventadmin&#45;&gt;org_apache_felix_configadmin</title>
<path fill="none" stroke="#deebf7" d="M773.695,-148.937C758.873,-139.323 740.169,-127.19 724.109,-116.774"/>
<polygon fill="#deebf7" stroke="#deebf7" points="725.796,-113.696 715.501,-111.19 721.986,-119.568 725.796,-113.696"/>
</g>
<!-- org_apache_felix_eventadmin&#45;&gt;org_apache_felix_metatype -->
<g id="edge78" class="edge"><title>org_apache_felix_eventadmin&#45;&gt;org_apache_felix_metatype</title>
<path fill="none" stroke="#deebf7" d="M822.04,-148.937C834.228,-139.501 849.55,-127.639 862.834,-117.354"/>
<polygon fill="#deebf7" stroke="#deebf7" points="865.032,-120.079 870.796,-111.19 860.746,-114.544 865.032,-120.079"/>
</g>
<!-- org_apache_felix_metatype&#45;&gt;org_apache_sling_commons_logservice -->
<g id="edge86" class="edge"><title>org_apache_felix_metatype&#45;&gt;org_apache_sling_commons_logservice</title>
<path fill="none" stroke="#bdbdbd" d="M881.862,-74.937C876.209,-66.277 869.221,-55.5731 862.92,-45.9207"/>
<polygon fill="#bdbdbd" stroke="#bdbdbd" points="865.782,-43.9013 857.385,-37.4407 859.92,-47.7277 865.782,-43.9013"/>
</g>
</g>
</svg>
